<?xml version="1.0" encoding="UTF-8" standalone="no"?>
<svg
   fill="none"
   viewBox="0 0 115.747 65.000001"
   class="block w-full"
   version="1.1"
   id="svg30"
   sodipodi:docname="logo.svg"
   inkscape:version="1.2.2 (b0a8486541, 2022-12-01)"
   width="115.747"
   height="65"
   xmlns:inkscape="http://www.inkscape.org/namespaces/inkscape"
   xmlns:sodipodi="http://sodipodi.sourceforge.net/DTD/sodipodi-0.dtd"
   xmlns="http://www.w3.org/2000/svg"
   xmlns:svg="http://www.w3.org/2000/svg">
  <sodipodi:namedview
     id="namedview32"
     pagecolor="#ffffff"
     bordercolor="#000000"
     borderopacity="0.25"
     inkscape:showpageshadow="2"
     inkscape:pageopacity="0.0"
     inkscape:pagecheckerboard="0"
     inkscape:deskcolor="#d1d1d1"
     showgrid="false"
     inkscape:zoom="3.9345238"
     inkscape:cx="168.12708"
     inkscape:cy="-6.98941"
     inkscape:window-width="3440"
     inkscape:window-height="1371"
     inkscape:window-x="0"
     inkscape:window-y="0"
     inkscape:window-maximized="1"
     inkscape:current-layer="svg30" />
  <path
     fill="#ffffff"
     d="m 50.403,22.733856 c 3.379,0 6.512,1.726 8.619,4.545 1.234,1.803 1.842,3.932 1.842,6.58 v 1.016 h -15.91 c 0.228,2.819 2.335,4.622 5.582,4.507 2.012,0 3.778,-0.844 4.727,-2.474 h 4.992 c -1.67,4.372 -5.163,6.846 -9.567,6.846 -2.962,0 -5.41,-1.016 -7.46,-3.087 -1.861,-1.976 -2.963,-4.719 -2.963,-7.366 0,-2.8 0.95,-5.274 2.791,-7.25 2.013,-2.128 4.632,-3.317 7.347,-3.317 m -0.152,4.276 c -2.354,0 -4.575,1.631 -5.24,4.105 h 10.84 c -0.74,-2.647 -2.677,-4.105 -5.6,-4.105 m 17.619,-10.108 v 8.036 c 1.785,-1.457 3.74,-2.033 6.15,-1.975 2.62,0 5.013,0.843 6.854,2.646 2.221,1.976 3.398,4.891 3.398,7.807 0,3.164 -1.329,6.136 -3.72,8.208 -1.785,1.457 -3.968,2.301 -6.512,2.301 -2.335,0 -4.328,-0.67 -6.17,-2.129 v 1.631 h -4.557 v -26.525 z m 5.847,10.587 c -3.227,0 -5.676,2.57 -5.676,6.004 0,3.26 2.563,5.83 5.43,5.81 3.569,0 6.017,-2.589 6.017,-5.907 0,-3.164 -2.544,-5.907 -5.771,-5.907 m 18.13,15.938 h -4.405 v -20.003 h 4.405 z m 0,-22.076 h -4.405 v -4.449 h 4.405 z m 13.211,1.555 c 2.886,0 4.936,0.94 6.284,2.915 v -2.397 h 4.405 v 20.003 h -4.424 v -2.473 c -1.101,2.071 -3.114,2.915 -6.17,2.915 -5.828,0 -10.232,-4.507 -10.233,-10.51 0,-2.82 0.95,-5.39 2.791,-7.365 2.013,-2.129 4.386,-3.088 7.347,-3.088 m 0.19,4.507 c -3.133,0 -5.677,2.475 -5.677,5.735 0,3.529 2.62,6.003 5.753,6.003 2.885,0 5.504,-2.647 5.505,-5.734 0,-3.433 -2.696,-6.004 -5.581,-6.004"
     id="path2" />
  <path
     fill="#ffffff"
     d="m 0.17,51.985856 h 12.02 l 13.003,-13.077 12.965,13.075 h 12.171 l -19.05,-19.214 19.22,-19.368 H 38.328 l -13.135,13.269 -13.06,-13.268 H 0 l 19.107,19.368 z"
     id="path4" />
  <mask
     id="footer-logo_svg__a"
     width="127"
     height="20"
     x="153"
     y="35"
     maskUnits="userSpaceOnUse">
    <path
       fill="#000000"
       d="m 271.455,54.164 h -1.15 v -1.937 h 0.958 c 1.107,0 1.575,-0.085 2.086,-1.575 l 0.128,-0.276 -4.151,-11.388 h 2.767 l 2.597,8.216 2.597,-8.216 h 2.596 l -4.022,11.43 c -1.065,2.959 -1.831,3.746 -4.406,3.746 m -5.313,-8.704 v -0.405 c -3.618,0.34 -5.087,0.851 -5.087,2.171 0,1 0.83,1.596 2.108,1.596 1.873,0 2.979,-0.957 2.979,-3.363 m -2.405,-6.812 c 2.852,0 4.938,1.235 4.874,4.896 0,0.575 -0.042,1.937 -0.042,2.98 0,1.447 0.128,2.958 0.34,3.916 h -2.32 c -0.085,-0.49 -0.17,-0.851 -0.213,-1.639 -0.702,1.277 -2.085,1.916 -3.767,1.916 -2.49,0 -4.235,-1.341 -4.235,-3.427 0,-2.852 3.511,-3.576 7.705,-4.001 v -0.277 c 0,-1.916 -1.065,-2.49 -2.469,-2.49 -1.299,0 -2.278,0.68 -2.342,2.064 h -2.49 c 0.17,-2.341 2.128,-3.938 4.959,-3.938 m -9.863,1.875 v -5.513 h 2.533 V 50.44 h -2.533 v -1.511 c -0.681,1.128 -1.873,1.788 -3.406,1.788 -2.788,0 -4.916,-2.32 -4.916,-6.002 0,-3.661 2.128,-5.981 4.916,-5.981 1.533,0 2.725,0.66 3.406,1.788 m 0.106,4.193 c 0,-2.64 -1.298,-3.917 -2.958,-3.917 -1.767,0 -2.831,1.511 -2.831,3.916 0,2.427 1.064,3.938 2.831,3.938 1.66,0 2.958,-1.298 2.958,-3.937 m -15.214,3.937 c 1.681,0 2.959,-1.277 2.959,-3.916 0,-2.639 -1.278,-3.938 -2.959,-3.938 -1.681,0 -2.959,1.298 -2.959,3.938 0,2.639 1.278,3.916 2.959,3.916 m 0,-9.919 c 2.873,0 5.577,1.873 5.577,6.003 0,4.129 -2.704,5.98 -5.577,5.98 -2.873,0 -5.577,-1.851 -5.577,-5.98 0,-4.129 2.704,-6.003 5.577,-6.003 M 227.102,50.44 V 37.265 h -4.853 v -2.256 h 12.409 v 2.256 h -4.853 V 50.44 Z M 216.1,35.009 V 50.44 h -2.704 V 35.009 Z m -18.429,15.431 5.747,-15.431 h 2.852 l 5.789,15.431 h -2.958 l -1.214,-3.427 h -6.257 l -1.192,3.427 z m 7.066,-12.302 -2.32,6.62 h 4.662 z m -20.12,-3.129 v 5.576 c 0.66,-1.192 1.873,-1.851 3.47,-1.851 2.767,0 3.895,1.788 3.895,4.512 v 7.194 h -2.533 v -6.577 c 0,-1.554 -0.234,-3.065 -2.171,-3.065 -1.937,0 -2.661,1.49 -2.661,3.555 v 6.087 h -2.533 V 35.009 Z m -9.192,3.981 v -3.023 h 2.533 v 3.022 h 2.299 v 1.83 h -2.299 v 6.237 c 0,1.17 0.277,1.447 1.362,1.447 h 0.916 v 1.937 h -1.873 c -2.448,0 -2.938,-0.66 -2.938,-3 v -6.62 h -1.702 v -1.83 z m -5.532,-3.981 h 2.533 v 2.554 h -2.533 z m 0,3.98 h 2.533 V 50.44 h -2.533 z m -12.311,8.13 1.959,-8.13 h 2.618 l 1.979,8.13 1.682,-8.13 h 2.745 l -3.043,11.45 h -2.406 l -2.256,-8.47 -2.256,8.47 h -2.405 l -3.044,-11.45 h 2.746 z"
       id="path10" />
  </mask>
  <defs
     id="defs28">
    <linearGradient
       id="footer-logo_svg__b"
       x1="151.683"
       x2="281.69299"
       y1="44.716"
       y2="44.716"
       gradientUnits="userSpaceOnUse">
      <stop
         stop-color="#008BF7"
         id="stop17" />
      <stop
         offset="0.25"
         stop-color="#8458F8"
         id="stop19" />
      <stop
         offset="0.5"
         stop-color="#D9029C"
         id="stop21" />
      <stop
         offset="0.75"
         stop-color="#F40642"
         id="stop23" />
      <stop
         offset="1"
         stop-color="#F79D00"
         id="stop25" />
    </linearGradient>
  </defs>
</svg>
