<svg xmlns="http://www.w3.org/2000/svg" width="115.747" height="65" fill="none" class="block w-full"><path fill="#000" d="M50.403 22.734c3.379 0 6.512 1.726 8.619 4.545 1.234 1.803 1.842 3.932 1.842 6.58v1.016h-15.91c.228 2.819 2.335 4.622 5.582 4.507 2.012 0 3.778-.844 4.727-2.474h4.992c-1.67 4.372-5.163 6.846-9.567 6.846-2.962 0-5.41-1.016-7.46-3.087-1.861-1.976-2.963-4.72-2.963-7.366 0-2.8.95-5.274 2.791-7.25 2.013-2.128 4.632-3.317 7.347-3.317m-.152 4.276c-2.354 0-4.575 1.63-5.24 4.105h10.84c-.74-2.647-2.677-4.105-5.6-4.105M67.87 16.902v8.036c1.785-1.457 3.74-2.033 6.15-1.975 2.62 0 5.013.843 6.854 2.646 2.221 1.976 3.398 4.89 3.398 7.807 0 3.164-1.329 6.136-3.72 8.208-1.785 1.457-3.968 2.3-6.512 2.3-2.335 0-4.328-.67-6.17-2.128v1.63h-4.557V16.903zm5.847 10.587c-3.227 0-5.676 2.57-5.676 6.004 0 3.26 2.563 5.83 5.43 5.81 3.569 0 6.017-2.59 6.017-5.907 0-3.164-2.544-5.907-5.771-5.907m18.13 15.938h-4.405V23.424h4.405zm0-22.076h-4.405V16.9h4.405zm13.211 1.555c2.886 0 4.936.94 6.284 2.915v-2.397h4.405v20.003h-4.424v-2.473c-1.101 2.07-3.114 2.915-6.17 2.915-5.828 0-10.232-4.507-10.233-10.51 0-2.82.95-5.39 2.791-7.365 2.013-2.13 4.386-3.088 7.347-3.088m.19 4.507c-3.133 0-5.677 2.475-5.677 5.735 0 3.529 2.62 6.003 5.753 6.003 2.885 0 5.504-2.647 5.505-5.734 0-3.433-2.696-6.004-5.581-6.004"/><path fill="#000" d="M.17 51.986h12.02l13.003-13.077 12.965 13.075h12.171L31.279 32.77l19.22-19.368H38.328L25.193 26.67l-13.06-13.268H0L19.107 32.77z"/></svg>
